PathFileType	4	(X/Y/Z)	pose_F01_0-86.trc
DataRate	CameraRate	NumFrames	NumMarkers	Units	OrigDataRate	OrigDataStartFrame	OrigNumFrames
30	30	7	21	m	30	10	86
Frame#	Time	CHip			RHip			RKnee			RAnkle			RBigToe			RSmallToe			RHeel			LHip			LKnee			LAnkle			LBigToe			LSmallToe			LHeel			Neck			Nose			RShoulder			RElbow			RWrist			LShoulder			LElbow			LWrist			
		X1	Y1	Z1	X2	Y2	Z2	X3	Y3	Z3	X4	Y4	Z4	X5	Y5	Z5	X6	Y6	Z6	X7	Y7	Z7	X8	Y8	Z8	X9	Y9	Z9	X10	Y10	Z10	X11	Y11	Z11	X12	Y12	Z12	X13	Y13	Z13	X14	Y14	Z14	X15	Y15	Z15	X16	Y16	Z16	X17	Y17	Z17	X18	Y18	Z18	X19	Y19	Z19	X20	Y20	Z20	X21	Y21	Z21	
10	0.3333333333333333	-0.26164127592919095	1.839143826327946	-0.454191459893849	-0.2705376978332498	1.8361604614555664	-0.390017205220173	-0.279190489158107	1.699468550095883	-0.3658831004197935	-0.2804769678814331	1.5663572831975356	-0.3436802841626209	-0.25594230613219987	1.5356116279902903	-0.3631639431444336	-0.2611130935373612	1.538305568482543	-0.32861805692912344	-0.2852406410972319	1.5600365663770166	-0.34745730304965305	-0.25578208336326913	1.8406396145153243	-0.5139130332301465	-0.2679721589603847	1.7038477274924648	-0.4797152934413136	-0.2721706677893928	1.5767095667742812	-0.4526237127943388	-0.24231863224314532	1.5440071428973	-0.4948276449997252	-0.24532427622667105	1.5537996146898627	-0.5156563557001622	-0.273351626403869	1.5649200789745474	-0.43602883182570856	-0.27425966815774316	1.9951221670818091	-0.47536308590753584	-0.2461244751067901	2.044244176574616	-0.5013657176308184	-0.27855189679504455	1.9919689476515836	-0.39149996326260306	-0.24604340993187285	1.937729004724715	-0.4121099711466475	-0.24921653619277048	2.0015131133382593	-0.4738186057123137	-0.2611859547333031	2.0001337018727403	-0.5623363799584081	-0.22888462326466907	1.9483037121391635	-0.5874565823502144	-0.2462990877058886	2.0072166615907427	-0.5260190830292694
11	0.36666666666666664	-0.26058442876147436	1.8416377989648303	-0.4514779164728675	-0.2703127493486958	1.8398294387432954	-0.3906427394199485	-0.27926910561851076	1.6996707488772445	-0.36584869861234764	-0.2802813904364693	1.5648844387214162	-0.3438810955783765	-0.2559774724752259	1.535704724815277	-0.3630993269398064	-0.26092111300012066	1.5369861310785546	-0.32883968308094413	-0.2848350310625865	1.5576033454100624	-0.3476562473404338	-0.25554678782098905	1.844379934848844	-0.514445147141703	-0.2720128823307119	1.7040506324646154	-0.4752882404044449	-0.27197238338190105	1.5753686856165892	-0.45282634948879846	-0.24407864280997138	1.5476529112499455	-0.4938864452918642	-0.24763325878081796	1.5550331663490207	-0.5135151107800872	-0.27315250625868104	1.5635578654301294	-0.43627676990202113	-0.27319627060384377	1.9974754381905133	-0.4726947154686134	-0.2490362471944385	2.0466246897060154	-0.49442254592365037	-0.2803693077970554	1.9944338914232758	-0.3897875771664616	-0.25231363656802014	1.941007524110917	-0.40024262772365016	-0.2445724390325559	1.9985341789760127	-0.4751199469351713	-0.26023255287202146	2.0001601925261436	-0.5593024630543001	-0.22957879669362977	1.9486812448870883	-0.5903020888413497	-0.24631995633683632	2.0051319001601597	-0.5256055616714819
12	0.4	-0.26175211964398826	1.84051286410107	-0.45445133678645433	-0.27339668595236755	1.8386767249723048	-0.39151074393235824	-0.2795938826985175	1.6993135325596644	-0.36556340049371455	-0.2802418436236762	1.5647459100589824	-0.34391408270478563	-0.254072513705543	1.5357835517960814	-0.3652612280644856	-0.26091070284640644	1.5372096460493472	-0.32891535068531996	-0.2852880336697854	1.560199302897907	-0.3475164530409676	-0.2558733987593711	1.8420230500793011	-0.5141301476818031	-0.2679769210202648	1.7038605077967115	-0.4796566968878097	-0.274137822276766	1.5769575582531161	-0.45061216294764905	-0.2442538140538408	1.5460690244267625	-0.4932633105298896	-0.2478214621662719	1.5562104558325807	-0.5132162852654414	-0.273185536674174	1.566437054704963	-0.43657615105052805	-0.27319562015567495	1.997408123623029	-0.47259112701290545	-0.24986987766810964	2.0480306140785522	-0.4974455556545759	-0.28032106194901407	1.994513793454746	-0.3897703990322089	-0.24620903677736072	1.9409627083940753	-0.40649113060587916	-0.25193107021919703	2.0026780773615704	-0.46627714403410697	-0.2602391265821986	2.0000910451559983	-0.5591623706879714	-0.2275233029675414	1.9498587954894897	-0.5924715486241873	-0.24624952861079896	2.008960198760797	-0.5264478313390051
13	0.43333333333333335	-0.26103042231178886	1.8407048648781978	-0.45125680223877196	-0.27451615642224725	1.8389529100450044	-0.38617884831704563	-0.2796282163054998	1.699869618155707	-0.36553352496753944	-0.280347070647442	1.5652304783626856	-0.34386976738387975	-0.2560912454167113	1.5361231632640457	-0.3632750448921074	-0.26214906453364434	1.537564790533002	-0.33221917517065147	-0.28538643663668184	1.5606849049730414	-0.3474317322733624	-0.25615563325467	1.8422890674345545	-0.5140797930087279	-0.2691089694406211	1.705383786141665	-0.4741728491369448	-0.2739886250098745	1.5757910089426188	-0.450746026007843	-0.24314656381470465	1.548238143827089	-0.49064975352199464	-0.24670423643971887	1.5554254217260026	-0.5102810962726676	-0.2732761461616241	1.5640098158107645	-0.43621098311446793	-0.2722606262023965	1.9948439059088785	-0.4690291437945178	-0.25304672909723414	2.0437299890703744	-0.497967427213154	-0.2811486539817161	1.9925698938166694	-0.38384819890733	-0.2527668394472959	1.9392691655485081	-0.3942116464527562	-0.24432931867299298	1.994772461452624	-0.46486976565253707	-0.2602792101794768	1.9975586165919073	-0.558776421065668	-0.230507231407974	1.9447502304916189	-0.5925775942536714	-0.24627786590027698	2.0054690750939392	-0.5254608461500645
14	0.4666666666666667	-0.26085142630648783	1.8418760724949115	-0.45149958777689136	-0.2726170092811864	1.8390421719923062	-0.3884104868675501	-0.2794423045750132	1.701094086850037	-0.365888244860259	-0.280541961526022	1.5639476569371877	-0.34336434883698164	-0.2529133429313797	1.5357852900159472	-0.36192685031871213	-0.26102816078288416	1.5357522482883943	-0.3282699976467196	-0.2850099292641984	1.5560143056909634	-0.3471230845871987	-0.2559794590348386	1.843466180166198	-0.5142512536683398	-0.268132340603688	1.7053917780386156	-0.47957865588449666	-0.27362208822095724	1.5764225019208096	-0.4512802730371062	-0.24319330526536895	1.5459800946293951	-0.49007161757327716	-0.24646597083708127	1.5544598676206602	-0.5103173504680892	-0.27301451222225015	1.565533410363078	-0.43651422675289425	-0.27240265292627225	1.9907363336688466	-0.4679239431582935	-0.24811001673246727	2.039946520993719	-0.49812859330932563	-0.28024781024789297	1.9875666755932966	-0.3797014474498822	-0.25122468146583005	1.9283343221583693	-0.39425352726945495	-0.2503707877565658	1.992392646014416	-0.4584618202058451	-0.2623174882559646	1.9959597422973578	-0.5561040472517008	-0.23044551419486634	1.9419909701567442	-0.5918206397500171	-0.24640194211501248	2.0022459059155735	-0.5250177153273222
15	0.5	-0.2607452306045964	1.840470457308675	-0.45124537636570583	-0.2724996311767938	1.8375663630858956	-0.3880177580459247	-0.2795686950884222	1.6996615918138167	-0.36546949051228	-0.28053735376680633	1.5667524953929044	-0.34369048402679314	-0.25423407854884134	1.5363067105764536	-0.3653163957795582	-0.26098853282153345	1.5374633745257147	-0.32893072931734296	-0.28538603050960454	1.5607792862443124	-0.34746126995936844	-0.25589441320626594	1.842018973380518	-0.5141216509213576	-0.26892959893347573	1.7038561931420473	-0.4742001807103894	-0.27401679594918266	1.5758870105254952	-0.45081279139593144	-0.24330132196520396	1.5467095672699003	-0.4901045514754552	-0.24663891099011448	1.5552343164529026	-0.5103380497696466	-0.27344501922699077	1.565059669461816	-0.43602319605693896	-0.27363020677846756	1.9899696168429146	-0.47151634624726535	-0.2452862717555847	2.0402629848587512	-0.49787645442380374	-0.2803752294867749	1.9863571376236424	-0.3797164815551565	-0.2509696740635192	1.9305210844621254	-0.3945184201837246	-0.24879934697510317	1.9879679791644815	-0.46076709762852053	-0.2606886784046462	1.9930173314267465	-0.5584059648080277	-0.2307521050192926	1.939518145307038	-0.5917080457947576	-0.24479096150629567	2.000047954246368	-0.5277448693433608
16	0.5333333333333333	-0.2607143228614511	1.8430633845098328	-0.4515659057750678	-0.274419007458435	1.8415798213283852	-0.3865134694515008	-0.27939919904578236	1.7008874005052608	-0.365847773258239	-0.2802985454970835	1.565145349093672	-0.3438857052408731	-0.25610281797153245	1.5363968553995406	-0.36312703545553887	-0.26104525117748767	1.537748251512715	-0.32882382100399987	-0.2851885628796665	1.559845346948825	-0.3474709346316358	-0.25604340676365966	1.8434974039332814	-0.5142147424199286	-0.267135614843713	1.705238854552099	-0.47639090166836773	-0.2739751942420541	1.5784011778143037	-0.45104629924770884	-0.2441848693241224	1.5456852262314815	-0.4933112954098786	-0.24762939346637763	1.554829838811615	-0.5136081763122607	-0.27355012931825895	1.5656737447310585	-0.4360058101917731	-0.27346387625377105	1.99374183267503	-0.47197608189434004	-0.24438066109799986	2.038213542291686	-0.5025820362295492	-0.28325936090306836	1.9878920039306354	-0.38126797051051403	-0.25321588908271475	1.9336522437504773	-0.3933242844316508	-0.24671286872730588	1.9891147958355564	-0.4628049038437042	-0.26246629073428884	1.9964748903723406	-0.5567161036609032	-0.23267301021156173	1.941034139752848	-0.5984169062148316	-0.24680557790278299	1.9950563340873073	-0.5325464216038436
